<?xml version="1.0" encoding="UTF-8" standalone="no"?><!DOCTYPE svg PUBLIC "-//W3C//DTD SVG 1.1//EN" "http://www.w3.org/Graphics/SVG/1.1/DTD/svg11.dtd"><svg width="100%" height="100%" viewBox="0 0 418 183" version="1.1" xmlns="http://www.w3.org/2000/svg" xmlns:xlink="http://www.w3.org/1999/xlink" xml:space="preserve" xmlns:serif="http://www.serif.com/" style="fill-rule:evenodd;clip-rule:evenodd;stroke-linejoin:round;stroke-miterlimit:2;"><g><g><g><g><path d="M282.22,42.44c-1.49,0.02 -2.56,0.6 -3.2,1.74l0,-5.15l-2.65,0l0,12.77l2.65,0l0,-4.56c0,-0.69 0.19,-1.25 0.58,-1.7c0.38,-0.44 0.9,-0.67 1.56,-0.68c0.56,0 1.01,0.17 1.33,0.51c0.33,0.34 0.49,0.8 0.49,1.39l0,5.04l2.65,0l0,-5.82c0,-1.08 -0.31,-1.94 -0.92,-2.58c-0.62,-0.64 -1.45,-0.96 -2.49,-0.96m-9.45,3.25l1.79,-1.29c-0.41,-0.62 -0.96,-1.1 -1.65,-1.44c-0.69,-0.34 -1.47,-0.51 -2.36,-0.51c-0.94,0 -1.77,0.2 -2.49,0.59c-0.72,0.4 -1.27,0.95 -1.67,1.67c-0.4,0.72 -0.59,1.55 -0.59,2.49c0,0.93 0.2,1.75 0.59,2.46c0.4,0.71 0.95,1.26 1.66,1.65c0.71,0.39 1.53,0.59 2.46,0.59c0.94,-0 1.76,-0.18 2.47,-0.53c0.71,-0.36 1.25,-0.86 1.64,-1.51l-1.83,-1.24c-0.47,0.72 -1.19,1.08 -2.15,1.08c-0.64,0 -1.17,-0.23 -1.58,-0.7c-0.41,-0.46 -0.62,-1.07 -0.62,-1.82c0,-0.75 0.21,-1.35 0.63,-1.8c0.42,-0.45 0.96,-0.68 1.63,-0.68c0.85,0.01 1.54,0.34 2.07,0.99m-13.24,4.34c-0.45,-0 -0.8,-0.11 -1.06,-0.32c-0.26,-0.21 -0.39,-0.5 -0.39,-0.85c-0,-0.37 0.12,-0.63 0.37,-0.8c0.25,-0.17 0.63,-0.25 1.14,-0.25l2.08,-0l-0,0.83c-0.08,0.4 -0.32,0.73 -0.72,1c-0.39,0.26 -0.87,0.39 -1.42,0.39m4.77,1.77l-0.02,-6.04c-0.01,-1.04 -0.36,-1.86 -1.04,-2.44c-0.68,-0.59 -1.64,-0.88 -2.88,-0.88c-0.77,0 -1.47,0.09 -2.12,0.26c-0.64,0.17 -1.33,0.44 -2.07,0.81l0.83,1.83c0.98,-0.54 1.89,-0.81 2.75,-0.81c0.63,0 1.11,0.13 1.44,0.4c0.33,0.27 0.49,0.65 0.49,1.14l0,0.17l-2.55,0c-1.12,0.01 -1.99,0.26 -2.61,0.75c-0.61,0.49 -0.92,1.17 -0.92,2.04c0,0.86 0.29,1.56 0.86,2.09c0.57,0.53 1.35,0.8 2.32,0.8c0.64,0 1.21,-0.1 1.7,-0.31c0.49,-0.21 0.9,-0.5 1.21,-0.89l0,1.08l2.61,0Zm-16.42,-5.39c0.1,-0.62 0.35,-1.11 0.73,-1.47c0.38,-0.36 0.86,-0.54 1.44,-0.54c0.61,0 1.1,0.18 1.46,0.55c0.37,0.37 0.56,0.86 0.59,1.46l-4.22,0Zm2.15,-3.96c-0.93,-0 -1.76,0.2 -2.48,0.59c-0.72,0.39 -1.29,0.95 -1.69,1.67c-0.4,0.72 -0.6,1.55 -0.6,2.49c0,0.93 0.2,1.75 0.59,2.46c0.4,0.71 0.96,1.26 1.69,1.65c0.73,0.39 1.58,0.59 2.56,0.59c0.83,-0 1.58,-0.14 2.25,-0.42c0.67,-0.28 1.24,-0.69 1.71,-1.21l-1.39,-1.41c-0.32,0.32 -0.68,0.57 -1.08,0.73c-0.4,0.17 -0.82,0.25 -1.26,0.25c-0.6,-0 -1.11,-0.16 -1.53,-0.49c-0.43,-0.33 -0.71,-0.78 -0.86,-1.37l6.65,-0c0.01,-0.15 0.02,-0.36 0.02,-0.64c-0,-1.54 -0.39,-2.74 -1.16,-3.6c-0.8,-0.86 -1.93,-1.29 -3.42,-1.29m-8.49,1.76l0,-1.67l-2.65,0l0,9.26l2.65,0l0,-4.46c0,-0.73 0.24,-1.32 0.71,-1.76c0.48,-0.44 1.12,-0.66 1.94,-0.66c0.18,0 0.32,0.01 0.41,0.02l0,-2.5c-0.69,0.01 -1.29,0.17 -1.81,0.47c-0.51,0.29 -0.93,0.73 -1.25,1.3m-4.8,5.13c-0.47,0.23 -0.9,0.34 -1.29,0.34c-0.56,0 -0.84,-0.36 -0.84,-1.07l0,-3.82l2.51,0l0,-1.84l-2.51,0l0,-2.55l-2.63,0l0,2.55l-1.29,0l0,1.82l1.29,0l0,4.29c0,0.92 0.27,1.62 0.81,2.12c0.54,0.49 1.24,0.74 2.1,0.74c0.42,0 0.85,-0.05 1.27,-0.16c0.42,-0.11 0.8,-0.27 1.14,-0.47l-0.56,-1.95Zm-10.38,-6.8l0,4.58c0,0.69 -0.18,1.25 -0.55,1.69c-0.37,0.44 -0.87,0.66 -1.5,0.67c-0.54,-0 -0.96,-0.17 -1.27,-0.5c-0.31,-0.33 -0.46,-0.79 -0.46,-1.38l0,-5.06l-2.65,-0l0,5.82c0,1.09 0.3,1.95 0.9,2.59c0.6,0.64 1.41,0.96 2.43,0.96c1.43,-0 2.47,-0.58 3.1,-1.74l0,1.64l2.63,-0l0,-9.26l-2.63,-0l0,-0.01Zm-14.34,-0.6c0.67,-0 1.28,0.17 1.83,0.51c0.56,0.34 1,0.8 1.32,1.39c0.33,0.58 0.49,1.23 0.49,1.93c0,0.71 -0.16,1.36 -0.49,1.95c-0.33,0.59 -0.77,1.06 -1.32,1.39c-0.56,0.34 -1.17,0.51 -1.83,0.51c-0.67,-0 -1.28,-0.17 -1.85,-0.52c-0.57,-0.35 -1.02,-0.81 -1.36,-1.39c-0.34,-0.59 -0.51,-1.23 -0.51,-1.95c0,-0.7 0.17,-1.34 0.5,-1.93c0.33,-0.59 0.79,-1.05 1.36,-1.39c0.57,-0.33 1.19,-0.5 1.86,-0.5m-0.03,-2.38c-1.22,0 -2.32,0.27 -3.3,0.81c-0.98,0.54 -1.76,1.28 -2.32,2.23c-0.57,0.95 -0.85,2 -0.85,3.16c0,1.17 0.28,2.23 0.85,3.18c0.57,0.95 1.35,1.69 2.33,2.24c0.99,0.55 2.08,0.82 3.29,0.82c1.21,0 2.3,-0.27 3.29,-0.82c0.99,-0.54 1.76,-1.29 2.33,-2.25c0.57,-0.95 0.85,-2.01 0.85,-3.17c0,-1.16 -0.28,-2.21 -0.85,-3.16c-0.57,-0.95 -1.35,-1.69 -2.33,-2.23c-0.99,-0.54 -2.09,-0.81 -3.29,-0.81" style="fill-rule:nonzero;"/><path d="M289.97,25.17c-1.49,0.02 -2.56,0.6 -3.2,1.72l0,-1.62l-2.65,-0l0,9.26l2.65,-0l0,-4.56c0,-0.69 0.19,-1.25 0.57,-1.69c0.38,-0.44 0.9,-0.67 1.55,-0.68c0.56,-0 1.01,0.17 1.33,0.51c0.33,0.34 0.49,0.8 0.49,1.39l0,5.04l2.65,-0l0,-5.82c0,-1.08 -0.31,-1.94 -0.92,-2.58c-0.62,-0.65 -1.44,-0.97 -2.47,-0.97m-12.57,2.22c0.68,-0 1.23,0.24 1.66,0.71c0.43,0.47 0.65,1.08 0.65,1.84c0,0.76 -0.22,1.37 -0.65,1.84c-0.43,0.47 -0.98,0.71 -1.66,0.71c-0.69,0 -1.25,-0.24 -1.68,-0.71c-0.43,-0.47 -0.65,-1.08 -0.65,-1.84c0,-0.76 0.22,-1.37 0.65,-1.84c0.43,-0.48 0.99,-0.71 1.68,-0.71m0,-2.21c-0.99,0 -1.86,0.2 -2.61,0.59c-0.75,0.39 -1.33,0.94 -1.75,1.65c-0.41,0.71 -0.62,1.54 -0.62,2.48c0,0.93 0.21,1.75 0.62,2.47c0.41,0.72 1,1.27 1.75,1.67c0.75,0.4 1.62,0.59 2.61,0.59c0.98,-0 1.84,-0.2 2.59,-0.59c0.75,-0.4 1.33,-0.95 1.75,-1.67c0.41,-0.72 0.62,-1.54 0.62,-2.47c0,-0.94 -0.21,-1.77 -0.62,-2.48c-0.41,-0.71 -0.99,-1.26 -1.75,-1.65c-0.75,-0.39 -1.62,-0.59 -2.59,-0.59m-8.07,-4.02c-0.41,-0 -0.76,0.14 -1.02,0.41c-0.27,0.27 -0.4,0.63 -0.4,1.07c0,0.43 0.14,0.78 0.4,1.06c0.27,0.28 0.61,0.42 1.02,0.42c0.42,-0 0.77,-0.14 1.04,-0.41c0.27,-0.28 0.4,-0.63 0.4,-1.07c0,-0.44 -0.13,-0.79 -0.4,-1.07c-0.27,-0.28 -0.62,-0.41 -1.04,-0.41m-1.31,13.37l2.65,0l0,-9.26l-2.65,0l0,9.26Zm-2.15,-2.46c-0.47,0.23 -0.9,0.35 -1.29,0.35c-0.56,-0 -0.84,-0.36 -0.84,-1.07l0,-3.82l2.51,0l0,-1.84l-2.51,-0l0,-2.55l-2.63,-0l0,2.55l-1.29,-0l0,1.82l1.29,-0l0,4.29c0,0.92 0.27,1.62 0.81,2.12c0.54,0.49 1.24,0.74 2.1,0.74c0.42,-0 0.85,-0.05 1.26,-0.16c0.42,-0.11 0.8,-0.27 1.15,-0.47l-0.56,-1.96Zm-12.24,0.69c-0.45,-0 -0.8,-0.11 -1.06,-0.32c-0.26,-0.21 -0.39,-0.5 -0.39,-0.85c0,-0.37 0.12,-0.63 0.37,-0.8c0.25,-0.17 0.63,-0.25 1.14,-0.25l2.08,-0l-0,0.83c-0.08,0.4 -0.32,0.73 -0.72,1c-0.4,0.26 -0.87,0.39 -1.42,0.39m4.76,1.77l-0.02,-6.04c-0.01,-1.04 -0.36,-1.86 -1.04,-2.45c-0.68,-0.58 -1.64,-0.88 -2.88,-0.88c-0.77,0 -1.48,0.09 -2.12,0.26c-0.64,0.17 -1.33,0.44 -2.07,0.81l0.83,1.82c0.98,-0.54 1.89,-0.81 2.75,-0.81c0.63,-0 1.11,0.14 1.44,0.4c0.33,0.27 0.49,0.65 0.49,1.15l-0,0.17l-2.55,-0c-1.12,0.01 -1.99,0.26 -2.61,0.75c-0.61,0.49 -0.92,1.17 -0.92,2.04c-0,0.86 0.29,1.56 0.86,2.09c0.57,0.53 1.35,0.8 2.32,0.8c0.64,0 1.21,-0.1 1.7,-0.31c0.49,-0.21 0.89,-0.5 1.2,-0.9l-0,1.08l2.62,0l-0,0.02Zm-11.24,-6.11l1.79,-1.29c-0.41,-0.62 -0.96,-1.1 -1.65,-1.44c-0.69,-0.34 -1.48,-0.51 -2.36,-0.51c-0.94,0 -1.77,0.2 -2.49,0.59c-0.72,0.4 -1.27,0.95 -1.67,1.67c-0.4,0.72 -0.59,1.55 -0.59,2.49c0,0.93 0.2,1.75 0.59,2.46c0.4,0.71 0.95,1.26 1.66,1.65c0.71,0.39 1.53,0.59 2.46,0.59c0.94,0 1.77,-0.18 2.47,-0.53c0.7,-0.36 1.25,-0.86 1.64,-1.51l-1.82,-1.24c-0.47,0.72 -1.19,1.09 -2.15,1.09c-0.64,0 -1.17,-0.23 -1.58,-0.7c-0.41,-0.46 -0.62,-1.07 -0.62,-1.82c0,-0.75 0.21,-1.35 0.63,-1.8c0.42,-0.45 0.96,-0.68 1.63,-0.68c0.85,-0 1.54,0.33 2.06,0.98m-11.37,-3.15l0,4.58c0,0.69 -0.18,1.25 -0.55,1.69c-0.37,0.44 -0.87,0.66 -1.5,0.67c-0.54,-0 -0.96,-0.17 -1.27,-0.5c-0.31,-0.33 -0.46,-0.79 -0.46,-1.38l0,-5.06l-2.65,-0l0,5.82c0,1.09 0.3,1.95 0.9,2.59c0.6,0.64 1.41,0.96 2.43,0.96c1.43,-0 2.47,-0.58 3.1,-1.74l0,1.63l2.63,-0l0,-9.26l-2.63,-0Zm-13.76,7.23c-0.69,-0 -1.25,-0.24 -1.68,-0.71c-0.43,-0.48 -0.65,-1.09 -0.66,-1.85c0.01,-0.76 0.23,-1.37 0.66,-1.85c0.43,-0.48 0.99,-0.71 1.68,-0.71c0.68,-0 1.23,0.24 1.66,0.71c0.43,0.48 0.65,1.09 0.65,1.85c0,0.76 -0.21,1.37 -0.65,1.85c-0.43,0.47 -0.98,0.71 -1.66,0.71m2.31,-10.74l0,4.87c-0.69,-0.98 -1.69,-1.46 -2.99,-1.46c-0.85,-0 -1.6,0.2 -2.26,0.59c-0.65,0.39 -1.16,0.94 -1.52,1.65c-0.36,0.71 -0.53,1.53 -0.53,2.46c0,0.94 0.18,1.77 0.54,2.5c0.36,0.72 0.87,1.28 1.53,1.68c0.66,0.4 1.43,0.59 2.3,0.59c0.63,-0 1.19,-0.12 1.69,-0.37c0.49,-0.25 0.91,-0.61 1.24,-1.09l0,1.36l2.63,-0l0,-12.77l-2.63,-0l0,-0.01Zm-17.96,12.77l9.36,-0l0,-2.25l-6.64,-0l0,-2.67l5.8,-0l0,-2.26l-5.8,-0l0,-2.62l6.45,-0l0,-2.25l-9.17,-0l0,12.05Z" style="fill-rule:nonzero;"/><path d="M280.98,7.95c-1.49,0.02 -2.56,0.6 -3.2,1.74l0,-5.15l-2.65,-0l0,12.77l2.65,0l0,-4.56c0,-0.69 0.19,-1.25 0.58,-1.69c0.38,-0.44 0.9,-0.67 1.56,-0.68c0.56,-0 1.01,0.17 1.33,0.51c0.33,0.34 0.49,0.8 0.49,1.39l0,5.04l2.65,-0l0,-5.82c0,-1.08 -0.31,-1.94 -0.92,-2.58c-0.62,-0.65 -1.45,-0.97 -2.49,-0.97m-9.45,3.26l1.79,-1.29c-0.41,-0.62 -0.96,-1.1 -1.65,-1.44c-0.69,-0.34 -1.47,-0.51 -2.36,-0.51c-0.94,0 -1.77,0.2 -2.49,0.59c-0.72,0.4 -1.27,0.95 -1.67,1.67c-0.4,0.72 -0.59,1.55 -0.59,2.49c0,0.93 0.2,1.75 0.59,2.46c0.4,0.71 0.95,1.26 1.66,1.65c0.71,0.39 1.53,0.59 2.46,0.59c0.94,0 1.76,-0.18 2.47,-0.53c0.71,-0.36 1.25,-0.86 1.64,-1.51l-1.83,-1.24c-0.47,0.72 -1.19,1.09 -2.15,1.09c-0.64,0 -1.17,-0.23 -1.58,-0.7c-0.41,-0.46 -0.62,-1.07 -0.62,-1.82c0,-0.75 0.21,-1.35 0.63,-1.8c0.42,-0.45 0.96,-0.68 1.63,-0.68c0.85,-0.01 1.54,0.32 2.07,0.98m-10.69,-1.48l-0,-1.67l-2.65,0l-0,9.26l2.65,-0l-0,-4.46c-0,-0.74 0.24,-1.32 0.71,-1.76c0.48,-0.44 1.12,-0.66 1.94,-0.66c0.18,-0 0.32,0.01 0.41,0.02l-0,-2.5c-0.69,0.01 -1.29,0.17 -1.81,0.46c-0.51,0.3 -0.93,0.73 -1.25,1.31m-9.71,5.81c-0.45,-0 -0.8,-0.11 -1.06,-0.32c-0.26,-0.21 -0.39,-0.5 -0.39,-0.85c-0,-0.37 0.12,-0.63 0.37,-0.8c0.25,-0.17 0.63,-0.25 1.14,-0.25l2.08,-0l-0,0.83c-0.08,0.4 -0.32,0.73 -0.72,1c-0.39,0.26 -0.87,0.39 -1.42,0.39m4.77,1.78l-0.02,-6.04c-0.01,-1.04 -0.36,-1.86 -1.04,-2.45c-0.68,-0.58 -1.64,-0.88 -2.88,-0.88c-0.77,0 -1.48,0.09 -2.12,0.26c-0.64,0.17 -1.33,0.44 -2.07,0.81l0.83,1.82c0.98,-0.54 1.89,-0.81 2.76,-0.81c0.63,-0 1.11,0.14 1.44,0.4c0.33,0.27 0.49,0.65 0.49,1.15l-0,0.17l-2.55,-0c-1.12,0.01 -1.99,0.26 -2.61,0.75c-0.61,0.49 -0.92,1.17 -0.92,2.04c-0,0.86 0.29,1.56 0.86,2.09c0.57,0.53 1.35,0.8 2.32,0.8c0.64,0 1.21,-0.1 1.7,-0.31c0.49,-0.21 0.89,-0.5 1.2,-0.9l-0,1.08l2.61,0l-0,0.02Zm-16.42,-5.39c0.1,-0.62 0.35,-1.11 0.73,-1.47c0.38,-0.36 0.86,-0.54 1.44,-0.54c0.61,0 1.1,0.18 1.46,0.55c0.37,0.37 0.56,0.86 0.59,1.46l-4.22,0Zm2.15,-3.96c-0.93,-0 -1.76,0.2 -2.48,0.59c-0.72,0.4 -1.29,0.95 -1.69,1.67c-0.4,0.72 -0.6,1.55 -0.6,2.49c-0,0.93 0.2,1.75 0.59,2.46c0.4,0.71 0.96,1.26 1.69,1.65c0.73,0.39 1.58,0.59 2.56,0.59c0.83,0 1.57,-0.14 2.25,-0.42c0.67,-0.28 1.24,-0.69 1.71,-1.21l-1.39,-1.41c-0.32,0.32 -0.68,0.57 -1.09,0.73c-0.4,0.17 -0.82,0.25 -1.26,0.25c-0.6,0 -1.11,-0.16 -1.53,-0.49c-0.42,-0.33 -0.71,-0.78 -0.86,-1.37l6.64,0c0.01,-0.15 0.02,-0.36 0.02,-0.64c-0,-1.54 -0.39,-2.74 -1.16,-3.6c-0.78,-0.86 -1.91,-1.29 -3.4,-1.29m-6.73,2.81l0.91,-1.81c-0.52,-0.33 -1.09,-0.59 -1.72,-0.77c-0.63,-0.18 -1.26,-0.27 -1.89,-0.27c-1.06,-0 -1.93,0.25 -2.62,0.76c-0.69,0.51 -1.03,1.22 -1.03,2.13c-0,0.6 0.15,1.08 0.45,1.46c0.3,0.37 0.66,0.65 1.08,0.83c0.42,0.18 0.94,0.37 1.58,0.55c0.6,0.17 1.03,0.33 1.3,0.48c0.27,0.15 0.4,0.35 0.4,0.62c-0,0.24 -0.11,0.42 -0.32,0.54c-0.21,0.12 -0.5,0.18 -0.85,0.18c-0.52,-0 -1.06,-0.1 -1.64,-0.3c-0.58,-0.2 -1.1,-0.49 -1.58,-0.85l-0.86,1.79c0.52,0.41 1.12,0.73 1.82,0.96c0.7,0.22 1.43,0.34 2.19,0.34c1.1,-0 2.01,-0.26 2.71,-0.77c0.71,-0.51 1.06,-1.22 1.06,-2.14c-0,-0.61 -0.15,-1.1 -0.46,-1.47c-0.31,-0.37 -0.68,-0.65 -1.1,-0.84c-0.42,-0.19 -0.96,-0.38 -1.62,-0.58c-0.6,-0.17 -1.03,-0.33 -1.29,-0.46c-0.26,-0.14 -0.4,-0.33 -0.4,-0.58c-0,-0.23 0.1,-0.4 0.29,-0.52c0.2,-0.12 0.45,-0.17 0.77,-0.17c0.39,-0 0.83,0.08 1.33,0.23c0.48,0.15 0.98,0.37 1.49,0.66m-14.29,1.15c0.1,-0.62 0.35,-1.11 0.73,-1.47c0.39,-0.36 0.86,-0.54 1.44,-0.54c0.61,0 1.1,0.18 1.46,0.55c0.37,0.37 0.56,0.86 0.58,1.46l-4.21,0Zm2.15,-3.96c-0.93,-0 -1.76,0.2 -2.48,0.59c-0.72,0.4 -1.29,0.95 -1.69,1.67c-0.4,0.72 -0.6,1.55 -0.6,2.49c-0,0.93 0.2,1.75 0.59,2.46c0.4,0.71 0.96,1.26 1.69,1.65c0.73,0.39 1.58,0.59 2.56,0.59c0.83,0 1.57,-0.14 2.25,-0.42c0.67,-0.28 1.24,-0.69 1.71,-1.21l-1.39,-1.41c-0.32,0.32 -0.68,0.57 -1.08,0.73c-0.4,0.17 -0.82,0.25 -1.26,0.25c-0.6,0 -1.11,-0.16 -1.53,-0.49c-0.42,-0.33 -0.71,-0.78 -0.86,-1.37l6.64,0c0.01,-0.15 0.02,-0.36 0.02,-0.64c-0,-1.54 -0.39,-2.74 -1.16,-3.6c-0.78,-0.86 -1.92,-1.29 -3.41,-1.29m-13.67,-0.45l2.51,0c0.76,0 1.34,0.17 1.75,0.51c0.41,0.34 0.61,0.84 0.61,1.51c-0,0.68 -0.2,1.19 -0.61,1.54c-0.41,0.35 -0.99,0.52 -1.75,0.52l-2.51,-0l-0,-4.08Zm7.77,9.8l-2.57,-3.98c0.73,-0.34 1.29,-0.85 1.68,-1.51c0.39,-0.66 0.58,-1.45 0.58,-2.38c-0,-1.33 -0.43,-2.36 -1.29,-3.09c-0.86,-0.73 -2.08,-1.09 -3.65,-1.09l-5.23,0l-0,12.05l2.72,0l-0,-3.44l2.77,0l1.91,3.44l3.08,0Z" style="fill-rule:nonzero;"/><path d="M378.47,84.24l11.26,27.84l-22.62,-0l11.36,-27.84Zm39.4,54.76l-30.6,-71.64l-16.68,0l-31.11,71.64l16.68,0l5.63,-13.92l33.16,-0l5.63,13.92l17.29,0Zm-88.63,-49.23l9.41,-11.57c-3.55,-3.68 -7.85,-6.6 -12.89,-8.75c-5.05,-2.15 -10.17,-3.22 -15.35,-3.22c-7.1,-0 -13.56,1.6 -19.39,4.81c-5.83,3.21 -10.42,7.61 -13.77,13.2c-3.34,5.6 -5.01,11.84 -5.01,18.73c-0,6.96 1.64,13.27 4.91,18.93c3.27,5.66 7.78,10.12 13.51,13.36c5.73,3.24 12.11,4.86 19.14,4.86c5.18,0 10.35,-1.16 15.51,-3.48c5.15,-2.32 9.64,-5.46 13.46,-9.42l-9.52,-10.34c-2.59,2.59 -5.54,4.66 -8.85,6.19c-3.31,1.54 -6.57,2.3 -9.77,2.3c-4.03,0 -7.71,-1.01 -11.05,-3.02c-3.34,-2.01 -5.97,-4.74 -7.88,-8.19c-1.91,-3.45 -2.86,-7.25 -2.86,-11.41c0,-4.16 0.95,-7.95 2.86,-11.36c1.91,-3.41 4.54,-6.11 7.88,-8.08c3.34,-1.98 7.03,-2.97 11.05,-2.97c3.34,-0 6.67,0.84 9.98,2.51c3.29,1.68 6.18,3.99 8.63,6.92" style="fill:#008fd2;fill-rule:nonzero;"/><path d="M259.55,89.77l9.41,-11.57c-3.55,-3.68 -7.85,-6.6 -12.89,-8.75c-5.05,-2.15 -10.17,-3.22 -15.35,-3.22c-7.1,-0 -13.56,1.6 -19.39,4.81c-5.83,3.21 -10.42,7.61 -13.76,13.2c-3.34,5.6 -5.02,11.84 -5.02,18.73c0,6.96 1.64,13.27 4.91,18.93c3.28,5.66 7.78,10.12 13.51,13.36c5.73,3.24 12.11,4.86 19.14,4.86c5.18,0 10.35,-1.16 15.51,-3.48c5.15,-2.32 9.64,-5.46 13.46,-9.42l-9.52,-10.34c-2.59,2.59 -5.54,4.66 -8.85,6.19c-3.31,1.54 -6.57,2.3 -9.77,2.3c-4.03,0 -7.71,-1.01 -11.05,-3.02c-3.34,-2.01 -5.97,-4.74 -7.88,-8.19c-1.91,-3.45 -2.86,-7.25 -2.86,-11.41c0,-4.16 0.95,-7.95 2.86,-11.36c1.91,-3.41 4.54,-6.11 7.88,-8.08c3.34,-1.98 7.03,-2.97 11.05,-2.97c3.34,-0 6.67,0.84 9.98,2.51c3.29,1.68 6.17,3.99 8.63,6.92" style="fill:#008fd2;fill-rule:nonzero;"/><path d="M55.74,14.78l8.02,18.02c-11.65,5.42 -21.44,14.18 -28.11,25.07l-9.49,0l-0,33.17c-0,0.2 -0.02,0.4 -0.02,0.6c-0,35.76 29.1,64.86 64.86,64.86c35.76,0 64.86,-29.1 64.86,-64.86c-0,-0.19 -0.01,-0.38 -0.01,-0.58l-0,0.58l-0,-33.77l-9.49,0c-6.67,-10.89 -16.46,-19.65 -28.11,-25.07l8.02,-18.02c29.07,13.39 49.31,42.81 49.31,76.86c-0,0.73 -0.01,1.46 -0.03,2.18c-1.16,45.63 -38.64,82.39 -84.54,82.39c-45.9,-0 -83.39,-36.76 -84.55,-82.39c-0.02,-0.72 -0.03,-1.45 -0.03,-2.18c-0,-34.06 20.23,-63.47 49.31,-76.86m45.23,12.76l2.74,-19.52c7.28,1.1 14.26,3.14 20.81,5.98l-8.02,18.01c-4.89,-2.1 -10.1,-3.62 -15.53,-4.47m-19.94,-0c-5.43,0.84 -10.63,2.36 -15.53,4.47l-8.02,-18.01c6.55,-2.84 13.53,-4.88 20.81,-5.98l2.74,19.52Zm9.97,-0.76c-2.74,0 -5.43,0.19 -8.08,0.52l-2.75,-19.54c3.55,-0.46 7.16,-0.69 10.83,-0.69c3.67,0 7.28,0.24 10.83,0.69l-2.75,19.54c-2.65,-0.33 -5.34,-0.52 -8.08,-0.52m32.9,31.08l-0,-2l-13.98,0l-0,-2l-37.85,0l-0,2l-13.98,0l-0,2l-20.19,0c11.19,-17.53 30.8,-29.18 53.09,-29.18c22.29,0 41.9,11.65 53.08,29.18l-20.17,0Zm30.1,7.99l-42.81,0l-20.14,-10.07l16.98,0l0,5.04l1.91,0l0,-3.04l12.06,0l0,6.13l1.91,0l0,-4.14l2.09,0l0,4.14l1.91,0l0,-4.14l2.09,0l0,4.14l1.91,0l0,-4.14l2.09,0l0,4.14l1.91,0l0,-4.14l2.09,0l0,4.14l1.91,0l0,-4.14l2.09,0l0,4.14l1.91,0l0,-4.14l2.09,0l0,4.14l1.91,0l0,-4.14l2.09,0l0,4.14l1.91,0l0,-4.14l2.09,0l0,6.08Zm-0.06,26.4c-0.06,6.09 -0.98,11.96 -2.66,17.52l-39.36,-0l-0,-42.02l10.08,0l0,38.98l1.91,0l0,-38.98l30.04,0l0,24.5l-0.01,0Zm-5.99,26.19c-1.2,2.54 -2.57,4.98 -4.08,7.32l0,-8.08l4.08,0l0,0.76Zm-73.87,-8.66l-2.09,-0l0,-4.08l2.09,-0l0,4.08Zm0.08,42.5l33.69,-0c-5.37,1.49 -11.01,2.31 -16.85,2.31c-5.84,-0 -11.48,-0.81 -16.84,-2.31m-36.02,-26.53c-1.51,-2.34 -2.88,-4.78 -4.08,-7.32l0,-0.76l4.08,0l0,8.08Zm90.66,16.2l-75.59,0c-0.98,-0.74 -1.93,-1.51 -2.87,-2.31l81.33,0c-0.94,0.79 -1.89,1.57 -2.87,2.31m-65.66,6.12l55.73,0c-1.71,0.85 -3.46,1.61 -5.26,2.31l-45.21,0c-1.79,-0.7 -3.55,-1.46 -5.26,-2.31m-7.26,-4.22l70.25,0c-1.21,0.82 -2.45,1.58 -3.72,2.31l-62.81,0c-1.27,-0.73 -2.52,-1.49 -3.72,-2.31m32.08,-26.17l6.08,0l0,20.06l-6.08,0l0,-20.06Zm-27.95,15.02l0,-21.01l10.07,0l0,26.05l-21.9,0c-3,-2.79 -5.73,-5.87 -8.14,-9.2l0,-12.77l-7.18,0c-0.56,-1.34 -1.06,-2.7 -1.52,-4.08l26.76,0l0,21.01l1.91,0Zm50.01,-22.92l-2.09,-0l0,-4.08l2.09,0l0,4.08Zm-6.08,-4.08l2.09,0l0,4.08l-2.09,-0l0,-4.08Zm-21.88,4.08l-2.09,-0l0,-4.08l2.09,0l0,4.08Zm4,-0l-2.09,-0l0,-4.08l2.09,0l0,4.08Zm3.99,-0l-2.09,-0l0,-4.08l2.09,0l0,4.08Zm1.91,-4.08l2.09,0l0,4.08l-2.09,-0l0,-4.08Zm6.08,4.08l-2.09,-0l0,-4.08l2.09,0l0,4.08Zm1.9,-4.08l2.09,0l0,4.08l-2.09,-0l0,-4.08Zm-8.94,-13.98c1.68,0 3.04,1.36 3.04,3.04l0,9.03l-6.08,0l0,-9.03c0,-1.68 1.37,-3.04 3.04,-3.04m-15.02,13.98l2.09,0l0,4.08l-2.09,-0l0,-4.08Zm34.04,5.99l0,26.05l-14.07,0l0,-21.96l-9.89,0l0,21.96l-14.06,0l0,-26.05l38.02,0Zm-51.91,-43.93l0,38.98l1.91,0l0,-38.98l10.07,0l0,42.02l-39.36,-0c-1.68,-5.56 -2.6,-11.44 -2.66,-17.52l0,-24.5l30.04,-0Zm65.79,64.94l0,-21.01l26.76,0c-0.47,1.38 -0.97,2.75 -1.53,4.08l-7.18,0l0,12.77c-2.41,3.32 -5.14,6.4 -8.14,9.19l-21.9,-0l0,-26.05l10.09,-0l0,21.01l1.9,-0l0,0.01Zm-13.88,-65.3l0,36.39l-14.07,-0l0,-9.03c0,-2.73 -2.22,-4.95 -4.95,-4.95c-2.73,0 -4.95,2.22 -4.95,4.95l0,9.03l-14.07,-0l0,-36.4l19,-9.5l1.02,0.51l18.02,9Zm-37.94,-9l0,2.42l1.91,0l0,-5.04l16.96,-0l-20.14,10.07l-42.74,-0l0,-6.08l2.09,0l0,4.14l1.91,-0l0,-4.14l2.09,0l0,4.14l1.91,-0l0,-4.14l2.09,0l0,4.14l1.91,-0l0,-4.14l2.09,0l0,4.14l1.91,-0l0,-4.14l2.09,0l0,4.14l1.91,-0l0,-4.14l2.09,0l0,4.14l1.91,-0l0,-4.14l2.09,0l0,4.14l1.91,-0l0,-4.14l2.09,0l0,4.14l1.91,-0l0,-6.13l12.07,-0l0,0.62l-0.06,0Zm105.4,33.24c0,-47.69 -38.8,-86.48 -86.48,-86.48c-47.69,-0 -86.48,38.79 -86.48,86.48c0,47.69 38.79,86.48 86.48,86.48c47.69,0 86.48,-38.8 86.48,-86.48" style="fill:#008fd2;fill-rule:nonzero;"/><path d="M1.93,91.64c0,-49.12 39.96,-89.08 89.08,-89.08c49.12,0 89.08,39.96 89.08,89.08c-0,49.12 -39.96,89.08 -89.08,89.08c-49.12,0 -89.08,-39.96 -89.08,-89.08m180.06,-0c0,-50.17 -40.82,-90.98 -90.98,-90.98c-50.17,-0 -90.99,40.82 -90.99,90.98c-0,50.16 40.81,90.99 90.99,90.99c50.16,-0.01 90.98,-40.82 90.98,-90.99" style="fill:#008fd2;fill-rule:nonzero;"/></g><rect x="102.03" y="116.72" width="1.91" height="11.98" style="fill:#008fd2;"/><path d="M32.15,82.78l1.91,-0l0,-11.03l4.08,0l-0,11.03l1.91,-0l0,-12.94l-7.9,-0l0,12.94Z" style="fill:#008fd2;fill-rule:nonzero;"/><rect x="78.07" y="116.72" width="1.91" height="11.98" style="fill:#008fd2;"/><path d="M46.13,104.74l1.9,0l-0,-11.02l4.09,0l0,11.02l1.9,0l-0,-12.93l-7.89,0l-0,12.93Z" style="fill:#008fd2;fill-rule:nonzero;"/><path d="M149.86,69.84l-7.9,-0l-0,12.94l1.91,-0l0,-11.03l4.08,0l-0,11.03l1.91,-0l0,-12.94Z" style="fill:#008fd2;fill-rule:nonzero;"/><path d="M129.89,117.68l4.09,0l0,11.02l1.9,-0l-0,-12.93l-7.89,-0l-0,12.93l1.9,-0l-0,-11.02Z" style="fill:#008fd2;fill-rule:nonzero;"/><rect x="116.01" y="116.72" width="1.91" height="11.98" style="fill:#008fd2;"/><rect x="64.09" y="70.8" width="1.91" height="11.98" style="fill:#008fd2;"/><path d="M32.15,104.74l1.91,0l0,-11.02l4.08,0l-0,11.02l1.91,0l0,-12.93l-7.9,0l0,12.93Z" style="fill:#008fd2;fill-rule:nonzero;"/><rect x="116.01" y="92.76" width="1.91" height="11.98" style="fill:#008fd2;"/><rect x="64.09" y="92.76" width="1.91" height="11.98" style="fill:#008fd2;"/><path d="M127.99,104.74l1.9,0l-0,-11.02l4.09,0l0,11.02l1.9,0l-0,-12.93l-7.89,0l-0,12.93Z" style="fill:#008fd2;fill-rule:nonzero;"/><path d="M95.95,69.84l-9.89,-0l0,12.94l1.9,-0l-0,-11.03l6.08,0l0,11.03l1.91,-0l-0,-12.94Z" style="fill:#008fd2;fill-rule:nonzero;"/><rect x="64.09" y="116.72" width="1.91" height="11.98" style="fill:#008fd2;"/><path d="M46.13,128.7l1.9,0l-0,-11.02l4.09,0l0,11.02l1.9,0l-0,-12.93l-7.89,0l-0,12.93Z" style="fill:#008fd2;fill-rule:nonzero;"/><rect x="116.01" y="70.8" width="1.91" height="11.98" style="fill:#008fd2;"/><g><path d="M91,85.82c-4.93,-0 -8.94,4.01 -8.94,8.94l1.91,-0c0,-3.88 3.15,-7.03 7.03,-7.03c3.88,0 7.03,3.15 7.03,7.03l1.91,-0c0,-4.93 -4.01,-8.94 -8.94,-8.94" style="fill:#008fd2;fill-rule:nonzero;"/></g><path d="M129.89,82.78l-0,-11.03l4.09,0l0,11.03l1.9,-0l-0,-12.94l-7.89,-0l-0,12.94l1.9,-0Z" style="fill:#008fd2;fill-rule:nonzero;"/><path d="M141.96,104.74l1.91,0l0,-11.02l4.08,0l-0,11.02l1.91,0l0,-12.93l-7.9,0l-0,12.93Z" style="fill:#008fd2;fill-rule:nonzero;"/><path d="M46.13,82.78l1.9,-0l-0,-11.03l4.09,0l0,11.03l1.9,-0l-0,-12.94l-7.89,-0l-0,12.94Z" style="fill:#008fd2;fill-rule:nonzero;"/><g><path d="M107.99,44.69c-0.3,-0.19 -0.55,-0.45 -0.73,-0.78c-0.18,-0.33 -0.28,-0.7 -0.28,-1.1c0,-0.4 0.09,-0.76 0.27,-1.09c0.18,-0.33 0.43,-0.59 0.73,-0.78c0.3,-0.19 0.65,-0.28 1.01,-0.28c0.36,0 0.69,0.09 0.99,0.28c0.3,0.19 0.54,0.45 0.71,0.78c0.17,0.33 0.26,0.69 0.26,1.09c-0,0.4 -0.09,0.77 -0.26,1.1c-0.17,0.33 -0.41,0.59 -0.71,0.78c-0.3,0.19 -0.63,0.29 -0.99,0.29c-0.36,-0 -0.69,-0.1 -1,-0.29m4.42,0.04c0.34,-0.58 0.52,-1.22 0.52,-1.94c0,-0.71 -0.17,-1.35 -0.52,-1.92c-0.34,-0.57 -0.82,-1.02 -1.42,-1.35c-0.6,-0.33 -1.27,-0.49 -2.02,-0.49c-0.74,0 -1.42,0.16 -2.02,0.49c-0.6,0.33 -1.07,0.78 -1.42,1.35c-0.34,0.57 -0.52,1.21 -0.52,1.92c0,0.72 0.17,1.36 0.52,1.94c0.34,0.58 0.82,1.04 1.42,1.37c0.6,0.33 1.27,0.49 2.02,0.49c0.74,0 1.42,-0.17 2.02,-0.5c0.6,-0.32 1.08,-0.78 1.42,-1.36" style="fill:#008fd2;fill-rule:nonzero;"/></g><path d="M101.81,43.55l-3.32,-4.4l-1.68,0l0,7.31l1.78,0l-0,-4.37l3.32,4.37l1.67,0l-0,-7.31l-1.78,0l0.01,4.4Z" style="fill:#008fd2;fill-rule:nonzero;"/><g><path d="M81.29,43.9c-0.17,0.33 -0.41,0.59 -0.71,0.78c-0.3,0.19 -0.63,0.29 -1,0.29c-0.36,0 -0.69,-0.1 -1,-0.29c-0.31,-0.19 -0.55,-0.45 -0.74,-0.78c-0.18,-0.33 -0.28,-0.7 -0.28,-1.1c0,-0.4 0.09,-0.76 0.27,-1.09c0.18,-0.33 0.43,-0.59 0.74,-0.78c0.31,-0.19 0.64,-0.28 1.01,-0.28c0.36,0 0.69,0.09 1,0.28c0.3,0.19 0.54,0.45 0.71,0.78c0.17,0.33 0.26,0.69 0.26,1.09c0,0.41 -0.08,0.77 -0.26,1.1m1.71,-3.03c-0.34,-0.57 -0.82,-1.02 -1.42,-1.34c-0.6,-0.33 -1.27,-0.49 -2.02,-0.49c-0.74,0 -1.42,0.16 -2.02,0.49c-0.6,0.33 -1.07,0.77 -1.42,1.34c-0.35,0.57 -0.52,1.21 -0.52,1.92c0,0.72 0.17,1.37 0.52,1.95c0.34,0.58 0.82,1.04 1.42,1.37c0.6,0.33 1.27,0.5 2.02,0.5c0.74,-0 1.42,-0.17 2.02,-0.5c0.6,-0.33 1.08,-0.79 1.42,-1.37c0.34,-0.58 0.52,-1.22 0.52,-1.94c-0.01,-0.72 -0.18,-1.36 -0.52,-1.93" style="fill:#008fd2;fill-rule:nonzero;"/><path d="M89.15,42.63c-0.21,0.19 -0.51,0.29 -0.9,0.29l-1.39,-0l0,-2.24l1.39,-0c0.39,-0 0.69,0.1 0.9,0.29c0.21,0.19 0.32,0.46 0.32,0.82c0,0.36 -0.11,0.64 -0.32,0.84m1.8,0.51c0.22,-0.4 0.33,-0.87 0.33,-1.42c-0,-0.81 -0.27,-1.45 -0.8,-1.89c-0.53,-0.45 -1.28,-0.67 -2.25,-0.67l-3.28,0l-0,7.31l1.91,0l0,-2.02l1.42,0l1.06,2.02l2.16,0l-1.52,-2.39c0.42,-0.23 0.75,-0.54 0.97,-0.94" style="fill:#008fd2;fill-rule:nonzero;"/></g><rect x="92.99" y="39.15" width="1.91" height="7.31" style="fill:#008fd2;"/><path d="M72.99,40.73l2.19,-0l0,-1.58l-6.27,0l0,1.58l2.17,-0l-0,5.73l1.91,0l0,-5.73Z" style="fill:#008fd2;fill-rule:nonzero;"/><g><path d="M94.17,18.78c-0.34,0.34 -0.72,0.61 -1.15,0.81c-0.43,0.2 -0.86,0.3 -1.27,0.3c-0.53,0 -1.01,-0.13 -1.44,-0.39c-0.44,-0.26 -0.78,-0.62 -1.03,-1.07c-0.25,-0.45 -0.37,-0.95 -0.37,-1.49c0,-0.54 0.12,-1.04 0.37,-1.48c0.25,-0.44 0.59,-0.8 1.03,-1.05c0.44,-0.25 0.92,-0.39 1.44,-0.39c0.43,0 0.87,0.11 1.3,0.33c0.43,0.22 0.81,0.52 1.13,0.9l1.23,-1.51c-0.46,-0.48 -1.02,-0.86 -1.68,-1.14c-0.66,-0.28 -1.33,-0.42 -2,-0.42c-0.93,0 -1.77,0.21 -2.53,0.63c-0.76,0.42 -1.36,0.99 -1.8,1.72c-0.44,0.73 -0.65,1.54 -0.65,2.44c0,0.91 0.21,1.73 0.64,2.47c0.43,0.74 1.01,1.32 1.76,1.74c0.75,0.42 1.58,0.63 2.5,0.63c0.68,0 1.35,-0.15 2.02,-0.46c0.67,-0.3 1.26,-0.71 1.76,-1.23l-1.26,-1.34Z" style="fill:#008fd2;fill-rule:nonzero;"/><path d="M66.32,21.08c0.25,0.87 0.68,1.61 1.3,2.2c0.61,0.59 1.34,0.99 2.17,1.19c0.83,0.2 1.69,0.18 2.58,-0.08c0.65,-0.19 1.25,-0.52 1.82,-0.99c0.56,-0.48 1.01,-1.03 1.35,-1.66l-1.57,-0.95c-0.23,0.42 -0.53,0.78 -0.89,1.09c-0.36,0.31 -0.74,0.52 -1.14,0.64c-0.51,0.15 -1,0.15 -1.49,0.02c-0.49,-0.13 -0.92,-0.38 -1.28,-0.74c-0.36,-0.36 -0.62,-0.81 -0.77,-1.33c-0.15,-0.52 -0.17,-1.03 -0.05,-1.53c0.12,-0.5 0.35,-0.93 0.7,-1.3c0.35,-0.37 0.77,-0.62 1.28,-0.77c0.42,-0.12 0.87,-0.13 1.34,-0.04c0.48,0.09 0.92,0.27 1.33,0.55l0.77,-1.79c-0.58,-0.33 -1.22,-0.54 -1.93,-0.63c-0.71,-0.09 -1.39,-0.04 -2.04,0.15c-0.89,0.26 -1.64,0.69 -2.26,1.3c-0.62,0.61 -1.03,1.33 -1.25,2.15c-0.23,0.82 -0.22,1.66 0.03,2.52" style="fill:#008fd2;fill-rule:nonzero;"/></g><path d="M109.81,20.63l2.42,-3.08l0.41,3.89l-2.83,-0.81Zm4.14,-4.88l-2.09,-0.6l-6.48,7.86l2.09,0.6l1.2,-1.54l4.16,1.19l0.21,1.95l2.17,0.62l-1.26,-10.08Z" style="fill:#008fd2;fill-rule:nonzero;"/><path d="M12.68,87.25l-0.07,1.9l2.64,0.1l-0.09,2.39l-0.03,0.88l1.53,0.05l0.03,-0.93l0.08,-2.34l1.63,0.06l-0.08,2.28l-0.05,1.26l1.52,0.07l0.05,-1.33l0.15,-4.13l-7.31,-0.26Z" style="fill:#008fd2;fill-rule:nonzero;"/><g><path d="M167.49,91.98c-0.19,0.31 -0.45,0.56 -0.77,0.74c-0.33,0.19 -0.69,0.29 -1.1,0.29c-0.4,0 -0.76,-0.08 -1.09,-0.26c-0.33,-0.18 -0.6,-0.42 -0.79,-0.73c-0.08,-0.12 -0.13,-0.26 -0.18,-0.39c-0.07,-0.2 -0.12,-0.4 -0.12,-0.61c0,-0.36 0.09,-0.69 0.27,-1c0.18,-0.3 0.44,-0.54 0.77,-0.72c0.33,-0.18 0.69,-0.27 1.09,-0.27c0.4,-0.01 0.77,0.08 1.1,0.25c0.33,0.17 0.6,0.4 0.79,0.7c0.19,0.3 0.29,0.63 0.3,0.99c-0,0.24 -0.05,0.45 -0.13,0.67c-0.03,0.11 -0.07,0.23 -0.14,0.34m1.38,-3.02c-0.34,-0.6 -0.8,-1.06 -1.38,-1.4c-0.58,-0.34 -1.23,-0.5 -1.95,-0.49c-0.71,0.01 -1.35,0.19 -1.91,0.54c-0.57,0.35 -1.01,0.83 -1.33,1.43c-0.32,0.6 -0.48,1.28 -0.47,2.02c-0,0.2 0.02,0.39 0.04,0.57c0.07,0.52 0.23,1 0.47,1.44c0.33,0.6 0.79,1.07 1.36,1.4c0.57,0.34 1.22,0.5 1.92,0.49c0.72,-0.01 1.36,-0.19 1.94,-0.54c0.58,-0.35 1.03,-0.83 1.35,-1.43c0.22,-0.42 0.36,-0.87 0.43,-1.36c0.03,-0.22 0.05,-0.44 0.05,-0.67c-0,-0.73 -0.18,-1.4 -0.52,-2" style="fill:#008fd2;fill-rule:nonzero;"/></g><path d="M141.56,151.43l3.76,-3.31l-1.07,-1.22l-2.33,2.05l-3.76,-4.27l-1.43,1.26l4.83,5.49Z" style="fill:#008fd2;fill-rule:nonzero;"/><g><path d="M14.52,96.9c0.17,-0.32 0.4,-0.59 0.72,-0.8c0.31,-0.21 0.67,-0.33 1.07,-0.37c0.4,-0.03 0.76,0.03 1.11,0.18c0.34,0.15 0.62,0.38 0.84,0.67c0.21,0.29 0.33,0.62 0.36,0.98c0.03,0.36 -0.04,0.7 -0.2,1.02c-0.16,0.32 -0.4,0.57 -0.71,0.78c-0.31,0.2 -0.67,0.32 -1.06,0.35c-0.4,0.03 -0.78,-0.02 -1.12,-0.17c-0.34,-0.14 -0.62,-0.36 -0.84,-0.65c-0.22,-0.28 -0.34,-0.61 -0.37,-0.97c-0.03,-0.36 0.04,-0.7 0.2,-1.02m-1.15,3.11c0.38,0.57 0.88,1 1.48,1.3c0.6,0.29 1.26,0.41 1.98,0.35c0.71,-0.06 1.33,-0.28 1.87,-0.67c0.54,-0.39 0.95,-0.9 1.22,-1.53c0.28,-0.63 0.38,-1.31 0.32,-2.05c-0.06,-0.74 -0.28,-1.4 -0.66,-1.97c-0.38,-0.57 -0.86,-1.01 -1.46,-1.3c-0.6,-0.3 -1.25,-0.41 -1.96,-0.35c-0.71,0.06 -1.35,0.29 -1.9,0.68c-0.55,0.39 -0.96,0.9 -1.24,1.53c-0.28,0.63 -0.39,1.31 -0.32,2.05c0.06,0.73 0.28,1.39 0.67,1.96" style="fill:#008fd2;fill-rule:nonzero;"/><path d="M90.77,164.45c-0.33,0.59 -0.48,1.23 -0.46,1.94c0.03,0.72 0.22,1.36 0.58,1.92c0.36,0.57 0.84,1 1.45,1.31c0.61,0.31 1.28,0.45 2.01,0.42c0.51,-0.02 1.04,-0.13 1.6,-0.32c0.56,-0.2 1.03,-0.45 1.41,-0.74l-0.1,-2.91l-1.65,0.06l0.07,1.89c-0.46,0.25 -0.88,0.39 -1.25,0.4c-0.39,0.01 -0.75,-0.07 -1.07,-0.24c-0.33,-0.18 -0.59,-0.43 -0.78,-0.75c-0.19,-0.32 -0.3,-0.69 -0.31,-1.1c-0.01,-0.4 0.06,-0.77 0.23,-1.1c0.17,-0.33 0.41,-0.6 0.71,-0.8c0.31,-0.2 0.65,-0.31 1.04,-0.32c0.33,-0.01 0.68,0.05 1.02,0.18c0.35,0.13 0.66,0.32 0.93,0.56l1.04,-1.37c-0.39,-0.32 -0.86,-0.57 -1.4,-0.75c-0.55,-0.18 -1.1,-0.26 -1.64,-0.24c-0.76,0.03 -1.44,0.21 -2.04,0.56c-0.59,0.34 -1.06,0.81 -1.39,1.4" style="fill:#008fd2;fill-rule:nonzero;"/></g><path d="M166.8,111.48l-1.45,-0.45l-1.17,3.78l-1.32,-0.4l1.02,-3.33l-1.45,-0.45l-1.03,3.33l-1.3,-0.41l1.14,-3.68l-1.45,-0.45l-1.71,5.51l6.99,2.16l1.73,-5.61Z" style="fill:#008fd2;fill-rule:nonzero;"/><g><path d="M144.81,143.35c-0.29,-0.27 -0.5,-0.58 -0.61,-0.94c-0.11,-0.36 -0.14,-0.71 -0.07,-1.07c0.07,-0.35 0.23,-0.66 0.48,-0.93c0.25,-0.26 0.54,-0.45 0.88,-0.54c0.34,-0.09 0.69,-0.09 1.06,0.01c0.36,0.1 0.69,0.28 0.98,0.55c0.3,0.27 0.51,0.59 0.63,0.94c0.12,0.35 0.15,0.7 0.09,1.05c-0.07,0.35 -0.22,0.66 -0.47,0.92c-0.24,0.27 -0.54,0.45 -0.89,0.54c-0.35,0.09 -0.71,0.1 -1.07,0.01c-0.38,-0.08 -0.71,-0.26 -1.01,-0.54m0.44,2.38c0.66,0.14 1.32,0.11 1.97,-0.11c0.65,-0.22 1.23,-0.6 1.73,-1.14c0.51,-0.55 0.84,-1.15 1.01,-1.82c0.16,-0.67 0.15,-1.32 -0.04,-1.97c-0.19,-0.64 -0.55,-1.21 -1.07,-1.7c-0.52,-0.48 -1.11,-0.79 -1.76,-0.93c-0.65,-0.14 -1.3,-0.09 -1.95,0.12c-0.65,0.22 -1.23,0.6 -1.73,1.15c-0.51,0.55 -0.84,1.15 -1.01,1.81c-0.17,0.66 -0.16,1.32 0.02,1.95c0.18,0.64 0.54,1.2 1.06,1.68c0.52,0.5 1.11,0.82 1.77,0.96" style="fill:#008fd2;fill-rule:nonzero;"/></g><path d="M40.79,151.88l4.59,3.65l0.95,-1.19l-3.1,-2.47l0.86,-1.08l2.73,2.16l0.94,-1.18l-2.73,-2.17l0.85,-1.07l3.02,2.4l0.95,-1.19l-4.51,-3.59l-4.55,5.73Z" style="fill:#008fd2;fill-rule:nonzero;"/><g><path d="M136.23,150.79c-0.05,0.28 -0.23,0.54 -0.54,0.78l-1.11,0.83l-1.35,-1.79l1.11,-0.83c0.31,-0.23 0.61,-0.34 0.89,-0.32c0.29,0.02 0.53,0.18 0.75,0.46c0.22,0.3 0.3,0.59 0.25,0.87m-1.04,5.6l1.52,-1.15l-1.22,-1.62l1.1,-0.83l0.03,-0.02l2.07,0.98l1.72,-1.3l-2.65,-0.99c0.2,-0.43 0.27,-0.88 0.21,-1.33c-0.06,-0.45 -0.26,-0.9 -0.59,-1.34c-0.49,-0.65 -1.08,-0.99 -1.78,-1.03c-0.7,-0.04 -1.43,0.24 -2.2,0.82l-2.62,1.98l4.41,5.83Z" style="fill:#008fd2;fill-rule:nonzero;"/><path d="M21.45,112.74l0.35,1.15c0.11,0.36 0.13,0.72 0.05,1.05c-0.08,0.34 -0.25,0.64 -0.5,0.89c-0.26,0.26 -0.58,0.45 -0.98,0.57c-0.39,0.12 -0.76,0.15 -1.12,0.1c-0.35,-0.06 -0.65,-0.2 -0.9,-0.42c-0.25,-0.22 -0.43,-0.51 -0.54,-0.86l-0.38,-1.24l4.02,-1.24Zm-5.15,2.81c0.23,0.74 0.58,1.36 1.05,1.84c0.47,0.48 1.02,0.8 1.65,0.95c0.63,0.15 1.29,0.12 1.97,-0.09c0.68,-0.21 1.24,-0.55 1.67,-1.03c0.43,-0.48 0.71,-1.04 0.83,-1.69c0.12,-0.65 0.07,-1.34 -0.16,-2.07l-0.93,-3.01l-6.99,2.16l0.91,2.94Z" style="fill:#008fd2;fill-rule:nonzero;"/></g><path d="M39.31,140.52l-5.11,5.24l1.28,1.24l3.05,-3.12l-0.67,5.44l1.19,1.17l5.11,-5.24l-1.27,-1.24l-3.07,3.16l0.69,-5.47l-1.2,-1.18Z" style="fill:#008fd2;fill-rule:nonzero;"/><path d="M13.8,105.63l4.28,-0.88l-3.61,4.13l0.34,1.64l7.16,-1.48l-0.36,-1.74l-4.31,0.9l3.64,-4.14l-0.33,-1.65l-7.17,1.48l0.36,1.74Z" style="fill:#008fd2;fill-rule:nonzero;"/><g><path d="M164.4,105.66l-0.28,1.36l-2.2,-0.45l0.28,-1.36c0.08,-0.38 0.23,-0.66 0.46,-0.83c0.23,-0.17 0.52,-0.22 0.87,-0.15c0.36,0.08 0.62,0.24 0.76,0.48c0.16,0.26 0.19,0.57 0.11,0.95m3.2,2.08l-1.98,-0.41l0.28,-1.35l0.01,-0.04l2.2,-0.63l0.44,-2.11l-2.65,1.01c-0.13,-0.46 -0.37,-0.84 -0.72,-1.14c-0.35,-0.3 -0.79,-0.5 -1.33,-0.61c-0.8,-0.16 -1.47,-0.03 -2.02,0.4c-0.55,0.43 -0.92,1.12 -1.11,2.07l-0.66,3.22l7.16,1.48l0.38,-1.89Z" style="fill:#008fd2;fill-rule:nonzero;"/></g><path d="M24.43,121.78l-1.97,1.98l-0.83,-1.85l2.8,-0.13Zm-5.75,0.27l1.39,-0.06l1.29,2.88l-0.98,0.99l0.83,1.86l5.41,-5.79l-0.8,-1.79l-7.96,0.13l0.82,1.78Z" style="fill:#008fd2;fill-rule:nonzero;"/><path d="M81.81,167.87l-3.06,-0.48l0.88,-5.62l-1.88,-0.29l-1.13,7.22l4.94,0.77l0.25,-1.6Z" style="fill:#008fd2;fill-rule:nonzero;"/><path d="M73.92,160.62l-1.86,-0.43l-1.65,7.12l4.88,1.13l0.36,-1.58l-3.02,-0.7l1.29,-5.54Z" style="fill:#008fd2;fill-rule:nonzero;"/><path d="M163.12,99.31l5.7,0.62l0.21,-1.9l-5.7,-0.62l0.23,-2.17l-1.57,-0.17l-0.67,6.23l1.57,0.17l0.23,-2.16Z" style="fill:#008fd2;fill-rule:nonzero;"/><g><path d="M107.76,165.55c-0.1,0.36 -0.28,0.66 -0.54,0.91c-0.26,0.25 -0.56,0.41 -0.92,0.48c-0.35,0.07 -0.7,0.05 -1.04,-0.08c-0.34,-0.12 -0.63,-0.33 -0.88,-0.62c-0.25,-0.29 -0.41,-0.63 -0.49,-1.02c-0.08,-0.39 -0.07,-0.76 0.05,-1.12c0.11,-0.36 0.3,-0.66 0.56,-0.91c0.26,-0.25 0.57,-0.41 0.93,-0.48c0.36,-0.07 0.7,-0.05 1.03,0.08c0.33,0.12 0.62,0.33 0.86,0.62c0.24,0.29 0.39,0.63 0.48,1.01c0.08,0.39 0.07,0.77 -0.04,1.13m1.06,-3.31c-0.45,-0.49 -1.01,-0.83 -1.66,-1.03c-0.65,-0.2 -1.35,-0.22 -2.07,-0.07c-0.73,0.15 -1.36,0.45 -1.88,0.89c-0.52,0.44 -0.89,0.98 -1.12,1.6c-0.22,0.63 -0.26,1.29 -0.12,1.98c0.14,0.7 0.44,1.3 0.9,1.8c0.45,0.5 1.01,0.85 1.66,1.05c0.66,0.2 1.35,0.23 2.08,0.08c0.73,-0.15 1.35,-0.45 1.88,-0.9c0.52,-0.45 0.89,-0.99 1.11,-1.62c0.22,-0.64 0.26,-1.3 0.11,-2c-0.14,-0.7 -0.43,-1.29 -0.89,-1.78" style="fill:#008fd2;fill-rule:nonzero;"/></g><path d="M100.22,162.077l-1.899,0.205l0.784,7.267l1.898,-0.205l-0.783,-7.267Z" style="fill:#008fd2;"/><g><path d="M67.91,162.75c-0.14,0.38 -0.35,0.7 -0.62,0.95c-0.28,0.25 -0.59,0.41 -0.94,0.49c-0.35,0.08 -0.69,0.05 -1.03,-0.07c-0.34,-0.12 -0.62,-0.33 -0.84,-0.61c-0.22,-0.28 -0.36,-0.61 -0.42,-0.99c-0.06,-0.37 -0.02,-0.75 0.12,-1.13c0.14,-0.37 0.35,-0.68 0.63,-0.93c0.28,-0.25 0.6,-0.41 0.96,-0.48c0.35,-0.07 0.7,-0.04 1.04,0.08c0.34,0.12 0.62,0.32 0.84,0.6c0.22,0.28 0.36,0.6 0.41,0.97c0.03,0.38 -0.01,0.75 -0.15,1.12m1.14,-3.06c-0.45,-0.51 -1.03,-0.9 -1.73,-1.15c-0.7,-0.25 -1.39,-0.33 -2.06,-0.23c-0.68,0.1 -1.27,0.36 -1.79,0.78c-0.52,0.42 -0.9,0.96 -1.14,1.63c-0.24,0.67 -0.3,1.34 -0.18,2c0.12,0.66 0.41,1.25 0.87,1.77c0.45,0.52 1.03,0.9 1.73,1.15c0.7,0.25 1.39,0.33 2.07,0.22c0.68,-0.11 1.28,-0.37 1.8,-0.8c0.52,-0.42 0.9,-0.97 1.15,-1.65c0.24,-0.67 0.3,-1.33 0.17,-1.98c-0.14,-0.65 -0.43,-1.23 -0.89,-1.74" style="fill:#008fd2;fill-rule:nonzero;"/><path d="M52.68,155.57c-0.08,-0.35 -0.29,-0.62 -0.63,-0.83c-0.33,-0.2 -0.67,-0.26 -1.02,-0.17c-0.35,0.09 -0.62,0.3 -0.83,0.64c-0.21,0.34 -0.27,0.69 -0.19,1.04c0.08,0.35 0.29,0.62 0.62,0.82c0.34,0.21 0.68,0.27 1.03,0.18c0.35,-0.09 0.62,-0.3 0.83,-0.65c0.21,-0.34 0.27,-0.68 0.19,-1.03" style="fill:#008fd2;fill-rule:nonzero;"/><path d="M60.21,161.12c-0.35,0.13 -0.7,0.19 -1.06,0.19c-0.36,0 -0.68,-0.07 -0.95,-0.2c-0.33,-0.16 -0.6,-0.39 -0.79,-0.68c-0.19,-0.3 -0.3,-0.63 -0.32,-1c-0.02,-0.37 0.06,-0.73 0.23,-1.09c0.17,-0.36 0.4,-0.64 0.7,-0.86c0.3,-0.22 0.62,-0.34 0.97,-0.38c0.35,-0.03 0.7,0.03 1.03,0.19c0.29,0.14 0.54,0.36 0.76,0.66c0.22,0.3 0.37,0.64 0.45,1.01l1.57,-0.73c-0.16,-0.51 -0.44,-0.98 -0.81,-1.41c-0.38,-0.43 -0.81,-0.77 -1.3,-1c-0.67,-0.32 -1.33,-0.46 -2.01,-0.42c-0.68,0.04 -1.29,0.24 -1.85,0.61c-0.55,0.37 -0.98,0.87 -1.29,1.51c-0.31,0.65 -0.44,1.3 -0.39,1.96c0.05,0.67 0.27,1.27 0.65,1.83c0.38,0.55 0.9,0.99 1.55,1.3c0.48,0.23 1.02,0.35 1.62,0.37c0.6,0.02 1.17,-0.08 1.7,-0.29l-0.46,-1.57Z" style="fill:#008fd2;fill-rule:nonzero;"/></g><path d="M83.15,169.66l5.86,0.35l0.09,-1.52l-3.95,-0.24l0.08,-1.37l3.48,0.19l0.09,-1.51l-3.48,-0.2l0.08,-1.37l3.85,0.23l0.1,-1.52l-5.76,-0.34l-0.44,7.3Z" style="fill:#008fd2;fill-rule:nonzero;"/><g><path d="M114.79,162.23c-0.31,-0.17 -0.66,-0.19 -1.04,-0.08c-0.37,0.11 -0.64,0.33 -0.8,0.65c-0.16,0.32 -0.19,0.66 -0.07,1.04c0.12,0.38 0.34,0.66 0.65,0.83c0.31,0.17 0.66,0.2 1.03,0.08c0.38,-0.12 0.65,-0.33 0.81,-0.65c0.17,-0.32 0.19,-0.67 0.07,-1.05c-0.12,-0.38 -0.33,-0.65 -0.65,-0.82" style="fill:#008fd2;fill-rule:nonzero;"/></g><path d="M129.74,156.53l-1.75,1.01l-0.41,-2.77l2.16,1.76Zm-2.24,-3.97l-1.7,0.98l0.92,7.9l1.7,-0.98l-0.2,-1.38l2.74,-1.57l1.08,0.87l1.76,-1.01l-6.3,-4.81Z" style="fill:#008fd2;fill-rule:nonzero;"/><g><path d="M125.54,160.64l-1.51,-0.64c-0.13,0.35 -0.31,0.66 -0.54,0.93c-0.23,0.27 -0.49,0.47 -0.76,0.59c-0.34,0.15 -0.68,0.2 -1.03,0.16c-0.35,-0.04 -0.67,-0.18 -0.96,-0.4c-0.29,-0.22 -0.52,-0.52 -0.68,-0.88c-0.16,-0.36 -0.23,-0.73 -0.21,-1.09c0.02,-0.36 0.14,-0.7 0.34,-0.99c0.2,-0.29 0.47,-0.51 0.81,-0.66c0.29,-0.13 0.62,-0.18 0.99,-0.16c0.37,0.03 0.73,0.13 1.06,0.31l0.46,-1.67c-0.49,-0.21 -1.03,-0.3 -1.6,-0.29c-0.57,0.01 -1.11,0.13 -1.6,0.35c-0.67,0.3 -1.21,0.72 -1.62,1.27c-0.41,0.54 -0.65,1.14 -0.73,1.8c-0.08,0.66 0.03,1.31 0.32,1.96c0.29,0.65 0.71,1.17 1.25,1.57c0.54,0.39 1.15,0.62 1.82,0.68c0.67,0.07 1.33,-0.05 1.99,-0.35c0.49,-0.22 0.93,-0.55 1.33,-1c0.39,-0.45 0.68,-0.95 0.87,-1.49" style="fill:#008fd2;fill-rule:nonzero;"/><path d="M34.93,137.76c0.23,0.28 0.37,0.59 0.42,0.95c0.05,0.35 -0,0.7 -0.14,1.05c-0.14,0.34 -0.36,0.64 -0.67,0.9c-0.31,0.26 -0.65,0.43 -1.01,0.51c-0.37,0.08 -0.72,0.06 -1.06,-0.05c-0.34,-0.11 -0.63,-0.3 -0.86,-0.58c-0.23,-0.28 -0.37,-0.59 -0.42,-0.95c-0.05,-0.36 -0.01,-0.71 0.13,-1.07c0.14,-0.36 0.36,-0.66 0.67,-0.92c0.3,-0.25 0.64,-0.42 1.01,-0.49c0.37,-0.07 0.73,-0.05 1.07,0.07c0.34,0.1 0.63,0.3 0.86,0.58m-2.39,-2.51c-0.66,0.1 -1.26,0.38 -1.8,0.84c-0.55,0.46 -0.94,1.01 -1.16,1.64c-0.22,0.64 -0.27,1.29 -0.14,1.96c0.13,0.67 0.44,1.3 0.92,1.87c0.48,0.57 1.04,0.98 1.68,1.23c0.64,0.25 1.29,0.32 1.96,0.21c0.66,-0.11 1.27,-0.39 1.82,-0.85c0.54,-0.45 0.92,-1 1.14,-1.63c0.22,-0.63 0.26,-1.28 0.12,-1.95c-0.14,-0.67 -0.44,-1.29 -0.92,-1.86c-0.48,-0.57 -1.04,-0.98 -1.67,-1.23c-0.64,-0.26 -1.29,-0.33 -1.95,-0.23" style="fill:#008fd2;fill-rule:nonzero;"/><path d="M157.95,119.36c0.1,-0.25 0.23,-0.42 0.4,-0.51c0.17,-0.09 0.36,-0.1 0.57,-0.01c0.21,0.09 0.35,0.23 0.41,0.42c0.06,0.19 0.04,0.41 -0.06,0.65l-0.56,1.35l-1.31,-0.55l0.55,-1.35Zm2.59,1.09c0.12,-0.31 0.28,-0.53 0.48,-0.66c0.2,-0.13 0.41,-0.15 0.62,-0.06c0.23,0.1 0.37,0.26 0.42,0.5c0.05,0.23 0.01,0.5 -0.11,0.81l-0.57,1.35l-1.41,-0.59l0.57,-1.35Zm1.48,4.27l1.4,-3.33c0.22,-0.53 0.34,-1.02 0.35,-1.47c0.01,-0.45 -0.08,-0.85 -0.27,-1.18c-0.2,-0.33 -0.48,-0.58 -0.86,-0.73c-0.44,-0.18 -0.86,-0.22 -1.27,-0.1c-0.41,0.12 -0.75,0.37 -1.01,0.77c0.06,-0.4 0,-0.76 -0.18,-1.08c-0.17,-0.32 -0.44,-0.55 -0.79,-0.7c-0.35,-0.14 -0.69,-0.17 -1.03,-0.07c-0.34,0.1 -0.66,0.3 -0.96,0.62c-0.3,0.32 -0.55,0.73 -0.76,1.24l-1.35,3.2l6.73,2.83Z" style="fill:#008fd2;fill-rule:nonzero;"/></g><path d="M28.69,129.03l-5.85,-1.09l-1.08,0.62l3.23,5.62l1.32,-0.77l-1.95,-3.4l5.85,1.1l1.08,-0.63l-3.12,-5.44l-1.33,0.76l1.85,3.23Z" style="fill:#008fd2;fill-rule:nonzero;"/><path d="M154.28,132.91l-1.14,1.67l-1.58,-2.31l2.72,0.64Zm-0.57,5.74l1.1,-1.62l-0.78,-1.15l1.77,-2.62l1.35,0.31l1.14,-1.68l-7.77,-1.57l-1.1,1.62l4.29,6.71Z" style="fill:#008fd2;fill-rule:nonzero;"/><path d="M31.978,131.297l-6.051,4.102l1.072,1.581l6.051,-4.102l-1.072,-1.581Z" style="fill:#008fd2;"/><path d="M158.93,130.6l2.39,-4.4l-1.44,-0.78l-1.47,2.73l-5,-2.71l-0.91,1.68l6.43,3.48Z" style="fill:#008fd2;fill-rule:nonzero;"/></g></g></g></svg>